<mxfile host="app.diagrams.net" modified="2022-11-17T14:43:12.003Z" agent="5.0 (Macintosh; Intel Mac OS X 10_15_7) AppleWebKit/537.36 (KHTML, like Gecko) Chrome/107.0.0.0 Safari/537.36" etag="yU8PHWB5ZZnd14K21aXA" version="20.5.3" type="github">
  <diagram id="C5RBs43oDa-KdzZeNtuy" name="Page-1">
    <mxGraphModel dx="687" dy="527" grid="1" gridSize="10" guides="1" tooltips="1" connect="1" arrows="1" fold="1" page="1" pageScale="1" pageWidth="827" pageHeight="1169" math="0" shadow="0">
      <root>
        <mxCell id="WIyWlLk6GJQsqaUBKTNV-0" />
        <mxCell id="WIyWlLk6GJQsqaUBKTNV-1" parent="WIyWlLk6GJQsqaUBKTNV-0" />
        <mxCell id="S3W0RM0Gtapi5kBxVmuu-2" value="" style="edgeStyle=orthogonalEdgeStyle;rounded=0;orthogonalLoop=1;jettySize=auto;html=1;" edge="1" parent="WIyWlLk6GJQsqaUBKTNV-1" source="S3W0RM0Gtapi5kBxVmuu-0" target="S3W0RM0Gtapi5kBxVmuu-1">
          <mxGeometry relative="1" as="geometry" />
        </mxCell>
        <mxCell id="S3W0RM0Gtapi5kBxVmuu-0" value="Install NEURON" style="rounded=1;whiteSpace=wrap;html=1;" vertex="1" parent="WIyWlLk6GJQsqaUBKTNV-1">
          <mxGeometry x="130" y="50" width="120" height="60" as="geometry" />
        </mxCell>
        <mxCell id="S3W0RM0Gtapi5kBxVmuu-4" value="" style="edgeStyle=orthogonalEdgeStyle;rounded=0;orthogonalLoop=1;jettySize=auto;html=1;" edge="1" parent="WIyWlLk6GJQsqaUBKTNV-1" source="S3W0RM0Gtapi5kBxVmuu-1" target="S3W0RM0Gtapi5kBxVmuu-3">
          <mxGeometry relative="1" as="geometry" />
        </mxCell>
        <mxCell id="S3W0RM0Gtapi5kBxVmuu-1" value="Download modfiles from github" style="rounded=1;whiteSpace=wrap;html=1;" vertex="1" parent="WIyWlLk6GJQsqaUBKTNV-1">
          <mxGeometry x="130" y="170" width="120" height="60" as="geometry" />
        </mxCell>
        <mxCell id="S3W0RM0Gtapi5kBxVmuu-6" value="" style="edgeStyle=orthogonalEdgeStyle;rounded=0;orthogonalLoop=1;jettySize=auto;html=1;" edge="1" parent="WIyWlLk6GJQsqaUBKTNV-1" source="S3W0RM0Gtapi5kBxVmuu-3" target="S3W0RM0Gtapi5kBxVmuu-5">
          <mxGeometry relative="1" as="geometry" />
        </mxCell>
        <mxCell id="S3W0RM0Gtapi5kBxVmuu-3" value="Compile modfiles" style="rounded=1;whiteSpace=wrap;html=1;" vertex="1" parent="WIyWlLk6GJQsqaUBKTNV-1">
          <mxGeometry x="130" y="290" width="120" height="60" as="geometry" />
        </mxCell>
        <mxCell id="S3W0RM0Gtapi5kBxVmuu-8" value="" style="edgeStyle=orthogonalEdgeStyle;rounded=0;orthogonalLoop=1;jettySize=auto;html=1;" edge="1" parent="WIyWlLk6GJQsqaUBKTNV-1" source="S3W0RM0Gtapi5kBxVmuu-5" target="S3W0RM0Gtapi5kBxVmuu-7">
          <mxGeometry relative="1" as="geometry" />
        </mxCell>
        <mxCell id="S3W0RM0Gtapi5kBxVmuu-5" value="Import cell template from &quot;HCO_cell_template.py&quot;" style="rounded=1;whiteSpace=wrap;html=1;" vertex="1" parent="WIyWlLk6GJQsqaUBKTNV-1">
          <mxGeometry x="290" y="290" width="140" height="60" as="geometry" />
        </mxCell>
        <mxCell id="S3W0RM0Gtapi5kBxVmuu-24" value="" style="edgeStyle=orthogonalEdgeStyle;rounded=0;orthogonalLoop=1;jettySize=auto;html=1;" edge="1" parent="WIyWlLk6GJQsqaUBKTNV-1" source="S3W0RM0Gtapi5kBxVmuu-7" target="S3W0RM0Gtapi5kBxVmuu-23">
          <mxGeometry relative="1" as="geometry" />
        </mxCell>
        <mxCell id="S3W0RM0Gtapi5kBxVmuu-7" value="Set Biophysical Parameters" style="rounded=1;whiteSpace=wrap;html=1;" vertex="1" parent="WIyWlLk6GJQsqaUBKTNV-1">
          <mxGeometry x="300" y="190" width="120" height="60" as="geometry" />
        </mxCell>
        <mxCell id="S3W0RM0Gtapi5kBxVmuu-32" value="" style="edgeStyle=orthogonalEdgeStyle;rounded=0;orthogonalLoop=1;jettySize=auto;html=1;" edge="1" parent="WIyWlLk6GJQsqaUBKTNV-1" source="S3W0RM0Gtapi5kBxVmuu-17" target="S3W0RM0Gtapi5kBxVmuu-31">
          <mxGeometry relative="1" as="geometry" />
        </mxCell>
        <mxCell id="S3W0RM0Gtapi5kBxVmuu-17" value="Set current injection parapeters" style="rounded=1;whiteSpace=wrap;html=1;" vertex="1" parent="WIyWlLk6GJQsqaUBKTNV-1">
          <mxGeometry x="460" y="300" width="120" height="60" as="geometry" />
        </mxCell>
        <mxCell id="S3W0RM0Gtapi5kBxVmuu-27" value="" style="edgeStyle=orthogonalEdgeStyle;rounded=0;orthogonalLoop=1;jettySize=auto;html=1;" edge="1" parent="WIyWlLk6GJQsqaUBKTNV-1" source="S3W0RM0Gtapi5kBxVmuu-23" target="S3W0RM0Gtapi5kBxVmuu-26">
          <mxGeometry relative="1" as="geometry" />
        </mxCell>
        <mxCell id="S3W0RM0Gtapi5kBxVmuu-23" value="&lt;meta charset=&quot;utf-8&quot;&gt;&lt;span style=&quot;color: rgb(0, 0, 0); font-family: Helvetica; font-size: 12px; font-style: normal; font-variant-ligatures: normal; font-variant-caps: normal; font-weight: 400; letter-spacing: normal; orphans: 2; text-align: center; text-indent: 0px; text-transform: none; widows: 2; word-spacing: 0px; -webkit-text-stroke-width: 0px; background-color: rgb(248, 249, 250); text-decoration-thickness: initial; text-decoration-style: initial; text-decoration-color: initial; float: none; display: inline !important;&quot;&gt;Add maximal conductance of leakage channel (gbar_leak)&lt;/span&gt;" style="ellipse;whiteSpace=wrap;html=1;rounded=1;" vertex="1" parent="WIyWlLk6GJQsqaUBKTNV-1">
          <mxGeometry x="300" y="50" width="120" height="70" as="geometry" />
        </mxCell>
        <mxCell id="S3W0RM0Gtapi5kBxVmuu-29" value="" style="edgeStyle=orthogonalEdgeStyle;rounded=0;orthogonalLoop=1;jettySize=auto;html=1;" edge="1" parent="WIyWlLk6GJQsqaUBKTNV-1" source="S3W0RM0Gtapi5kBxVmuu-26" target="S3W0RM0Gtapi5kBxVmuu-28">
          <mxGeometry relative="1" as="geometry" />
        </mxCell>
        <mxCell id="S3W0RM0Gtapi5kBxVmuu-26" value="Add maximal conductance of Sodium channel (gbar_na)" style="ellipse;whiteSpace=wrap;html=1;rounded=1;" vertex="1" parent="WIyWlLk6GJQsqaUBKTNV-1">
          <mxGeometry x="460" y="50" width="120" height="70" as="geometry" />
        </mxCell>
        <mxCell id="S3W0RM0Gtapi5kBxVmuu-30" value="" style="edgeStyle=orthogonalEdgeStyle;rounded=0;orthogonalLoop=1;jettySize=auto;html=1;" edge="1" parent="WIyWlLk6GJQsqaUBKTNV-1" source="S3W0RM0Gtapi5kBxVmuu-28" target="S3W0RM0Gtapi5kBxVmuu-17">
          <mxGeometry relative="1" as="geometry" />
        </mxCell>
        <mxCell id="S3W0RM0Gtapi5kBxVmuu-28" value="&lt;meta charset=&quot;utf-8&quot;&gt;&lt;span style=&quot;color: rgb(0, 0, 0); font-family: Helvetica; font-size: 12px; font-style: normal; font-variant-ligatures: normal; font-variant-caps: normal; font-weight: 400; letter-spacing: normal; orphans: 2; text-align: center; text-indent: 0px; text-transform: none; widows: 2; word-spacing: 0px; -webkit-text-stroke-width: 0px; background-color: rgb(248, 249, 250); text-decoration-thickness: initial; text-decoration-style: initial; text-decoration-color: initial; float: none; display: inline !important;&quot;&gt;Add maximal conductance of potassium channel (gbar_kdr)&lt;/span&gt;" style="ellipse;whiteSpace=wrap;html=1;rounded=1;" vertex="1" parent="WIyWlLk6GJQsqaUBKTNV-1">
          <mxGeometry x="460" y="180" width="120" height="70" as="geometry" />
        </mxCell>
        <mxCell id="S3W0RM0Gtapi5kBxVmuu-34" value="" style="edgeStyle=orthogonalEdgeStyle;rounded=0;orthogonalLoop=1;jettySize=auto;html=1;" edge="1" parent="WIyWlLk6GJQsqaUBKTNV-1" source="S3W0RM0Gtapi5kBxVmuu-31" target="S3W0RM0Gtapi5kBxVmuu-33">
          <mxGeometry relative="1" as="geometry" />
        </mxCell>
        <mxCell id="S3W0RM0Gtapi5kBxVmuu-31" value="Set synaptic input parameters" style="whiteSpace=wrap;html=1;rounded=1;" vertex="1" parent="WIyWlLk6GJQsqaUBKTNV-1">
          <mxGeometry x="630" y="300" width="120" height="60" as="geometry" />
        </mxCell>
        <mxCell id="S3W0RM0Gtapi5kBxVmuu-33" value="Plot results" style="whiteSpace=wrap;html=1;rounded=1;" vertex="1" parent="WIyWlLk6GJQsqaUBKTNV-1">
          <mxGeometry x="630" y="160" width="120" height="60" as="geometry" />
        </mxCell>
      </root>
    </mxGraphModel>
  </diagram>
</mxfile>
